<mxfile host="app.diagrams.net" modified="2024-07-18T12:30:31.785Z" agent="Mozilla/5.0 (Macintosh; Intel Mac OS X 10_15_7) AppleWebKit/537.36 (KHTML, like Gecko) Chrome/126.0.0.0 Safari/537.36" version="24.7.1" etag="zjviEBvAMmZ_ZHP-s_t4" type="github">
  <diagram name="페이지-1" id="ABSBmQ2Abm_vOfLodUjE">
    <mxGraphModel>
      <root>
        <mxCell id="0" />
        <mxCell id="1" parent="0" />
      </root>
    </mxGraphModel>
  </diagram>
</mxfile>
